HIERARCHY
ROOT Hips
{
	OFFSET 0.000000 87.230942 0.000000
	CHANNELS 6 Xposition Yposition Zposition Xrotation Yrotation Zrotation
	JOINT Pelvis
	{
		OFFSET 0.000000 0.000000 0.000000
		CHANNELS 3 Xrotation Yrotation Zrotation
		JOINT LeftUpLeg
		{
			OFFSET 12.017000 -9.376404 -2.439400
			CHANNELS 3 Xrotation Yrotation Zrotation
			JOINT LeftLeg
			{
				OFFSET -0.007312 -32.846973 2.110600
				CHANNELS 3 Xrotation Yrotation Zrotation
				JOINT LeftFoot
				{
					OFFSET 0.007312 -32.065170 -0.570400
					CHANNELS 3 Xrotation Yrotation Zrotation
					JOINT LeftToeBase
					{
						OFFSET 0.728300 -11.045900 13.180700
						CHANNELS 3 Xrotation Yrotation Zrotation
						End Site
						{
							OFFSET 0.000000 17.212589 0.000000
						}
					}
				}
				JOINT LeftPantLeg
				{
					OFFSET 0.002788 -16.709013 -3.143600
					CHANNELS 3 Xrotation Yrotation Zrotation
					End Site
					{
						OFFSET -0.605125 24.528742 0.000000
					}
				}
			}
			JOINT Left_Butt
			{
				OFFSET -6.630234 1.326584 -3.183700
				CHANNELS 3 Xrotation Yrotation Zrotation
				End Site
				{
					OFFSET -0.498041 20.188049 0.000000
				}
			}
		}
		JOINT RightUpLeg
		{
			OFFSET -11.717000 -9.376404 -2.439400
			CHANNELS 3 Xrotation Yrotation Zrotation
			JOINT RightLeg
			{
				OFFSET -0.003241 -32.846912 2.110600
				CHANNELS 3 Xrotation Yrotation Zrotation
				JOINT RightFoot
				{
					OFFSET 0.003241 -32.065136 -0.570500
					CHANNELS 3 Xrotation Yrotation Zrotation
					JOINT RightToeBase
					{
						OFFSET -0.728300 -11.045901 13.180700
						CHANNELS 3 Xrotation Yrotation Zrotation
						End Site
						{
							OFFSET 0.000000 17.212593 0.000000
						}
					}
				}
				JOINT RightPantLeg
				{
					OFFSET 0.008142 -16.708982 -3.143700
					CHANNELS 3 Xrotation Yrotation Zrotation
					End Site
					{
						OFFSET 0.605088 24.528715 0.000000
					}
				}
			}
			JOINT Right_Butt
			{
				OFFSET 6.630732 1.326584 -3.183700
				CHANNELS 3 Xrotation Yrotation Zrotation
				End Site
				{
					OFFSET 0.498015 20.188240 0.000000
				}
			}
		}
	}
	JOINT Spine
	{
		OFFSET -0.062400 7.848404 3.918300
		CHANNELS 3 Xrotation Yrotation Zrotation
		JOINT Spine1
		{
			OFFSET -0.072800 11.422302 0.713400
			CHANNELS 3 Xrotation Yrotation Zrotation
			JOINT Spine2
			{
				OFFSET -0.083200 13.054001 -1.931600
				CHANNELS 3 Xrotation Yrotation Zrotation
				JOINT Neck
				{
					OFFSET -0.092200 14.121796 -5.138800
					CHANNELS 3 Xrotation Yrotation Zrotation
					JOINT Head
					{
						OFFSET 0.000200 10.447403 -0.842000
						CHANNELS 3 Xrotation Yrotation Zrotation
						JOINT Visor
						{
							OFFSET 0.457100 25.671204 16.550400
							CHANNELS 3 Xrotation Yrotation Zrotation
							End Site
							{
								OFFSET 0.000000 26.061493 0.000000
							}
						}
						JOINT HairMidA
						{
							OFFSET 0.459400 31.585403 8.437400
							CHANNELS 3 Xrotation Yrotation Zrotation
							End Site
							{
								OFFSET 0.000000 26.061493 0.000000
							}
						}
						JOINT HairMidB
						{
							OFFSET 0.464000 33.309204 -8.389700
							CHANNELS 3 Xrotation Yrotation Zrotation
							End Site
							{
								OFFSET 0.000000 26.061493 0.000000
							}
						}
						JOINT HairMidC
						{
							OFFSET 0.466600 27.991196 -17.375099
							CHANNELS 3 Xrotation Yrotation Zrotation
							End Site
							{
								OFFSET 0.000000 26.061493 0.000000
							}
						}
						JOINT HairMidD
						{
							OFFSET 0.467700 17.888092 -21.169500
							CHANNELS 3 Xrotation Yrotation Zrotation
							End Site
							{
								OFFSET 0.000000 26.061493 0.000000
							}
						}
						JOINT HairMidE
						{
							OFFSET 5.325700 3.514603 -14.369699
							CHANNELS 3 Xrotation Yrotation Zrotation
							End Site
							{
								OFFSET 0.000000 26.061493 0.000000
							}
						}
						JOINT HairMidF
						{
							OFFSET -4.394100 3.514603 -14.372400
							CHANNELS 3 Xrotation Yrotation Zrotation
							End Site
							{
								OFFSET 0.000000 26.061493 0.000000
							}
						}
						JOINT HairLeftA
						{
							OFFSET 15.319900 25.746506 2.623300
							CHANNELS 3 Xrotation Yrotation Zrotation
							End Site
							{
								OFFSET 0.000000 26.061493 0.000000
							}
						}
						JOINT HairLeftB
						{
							OFFSET 12.619500 29.289398 -8.731499
							CHANNELS 3 Xrotation Yrotation Zrotation
							End Site
							{
								OFFSET 0.000000 26.061493 0.000000
							}
						}
						JOINT HairLeftC
						{
							OFFSET 15.714800 15.959900 2.909800
							CHANNELS 3 Xrotation Yrotation Zrotation
							End Site
							{
								OFFSET 0.000000 26.061493 0.000000
							}
						}
						JOINT HairLeftD
						{
							OFFSET 16.101700 18.437408 -7.553200
							CHANNELS 3 Xrotation Yrotation Zrotation
							End Site
							{
								OFFSET 0.000000 26.061493 0.000000
							}
						}
						JOINT HairLeftE
						{
							OFFSET 9.731900 17.915009 -18.316799
							CHANNELS 3 Xrotation Yrotation Zrotation
							End Site
							{
								OFFSET 0.000000 26.061493 0.000000
							}
						}
						JOINT HairLeftF
						{
							OFFSET 11.204300 4.953598 -9.668100
							CHANNELS 3 Xrotation Yrotation Zrotation
							End Site
							{
								OFFSET 0.000000 26.061493 0.000000
							}
						}
						JOINT HairRightA
						{
							OFFSET -14.397900 25.746307 2.615100
							CHANNELS 3 Xrotation Yrotation Zrotation
							End Site
							{
								OFFSET 0.000000 26.061493 0.000000
							}
						}
						JOINT HairRightB
						{
							OFFSET -11.691200 29.289200 -8.738199
							CHANNELS 3 Xrotation Yrotation Zrotation
							End Site
							{
								OFFSET 0.000000 26.061493 0.000000
							}
						}
						JOINT HairRightC
						{
							OFFSET -14.792900 15.959702 2.901400
							CHANNELS 3 Xrotation Yrotation Zrotation
							End Site
							{
								OFFSET 0.000000 26.061493 0.000000
							}
						}
						JOINT HairRightD
						{
							OFFSET -15.174000 18.437195 -7.561900
							CHANNELS 3 Xrotation Yrotation Zrotation
							End Site
							{
								OFFSET 0.000000 26.061493 0.000000
							}
						}
						JOINT HairRightE
						{
							OFFSET -8.798200 17.914902 -18.322001
							CHANNELS 3 Xrotation Yrotation Zrotation
							End Site
							{
								OFFSET 0.000000 26.061493 0.000000
							}
						}
						JOINT HairRightF
						{
							OFFSET -10.275200 4.953506 -9.674099
							CHANNELS 3 Xrotation Yrotation Zrotation
							End Site
							{
								OFFSET 0.000000 26.061493 0.000000
							}
						}
					}
				}
				JOINT LeftShoulder
				{
					OFFSET 5.133500 7.341202 -1.867600
					CHANNELS 3 Xrotation Yrotation Zrotation
					JOINT LeftArm
					{
						OFFSET 8.072663 0.936867 -2.176600
						CHANNELS 3 Xrotation Yrotation Zrotation
						JOINT LeftForeArm
						{
							OFFSET 31.271999 0.000000 0.000000
							CHANNELS 3 Xrotation Yrotation Zrotation
							JOINT LeftHand
							{
								OFFSET 31.771030 0.000000 0.000000
								CHANNELS 3 Xrotation Yrotation Zrotation
								JOINT LeftHandThumb1
								{
									OFFSET 2.886520 -2.557846 4.416638
									CHANNELS 3 Xrotation Yrotation Zrotation
									JOINT LeftHandThumb2
									{
										OFFSET 2.371025 -1.368912 1.368910
										CHANNELS 3 Xrotation Yrotation Zrotation
										JOINT LeftHandThumb3
										{
											OFFSET 2.243378 -1.295212 1.295213
											CHANNELS 3 Xrotation Yrotation Zrotation
											End Site
											{
												OFFSET -0.332611 2.876945 0.020016
											}
										}
									}
								}
								JOINT LeftHandIndex1
								{
									OFFSET 8.568985 -0.641945 3.119977
									CHANNELS 3 Xrotation Yrotation Zrotation
									JOINT LeftHandIndex2
									{
										OFFSET 3.348503 0.000000 0.000000
										CHANNELS 3 Xrotation Yrotation Zrotation
										JOINT LeftHandIndex3
										{
											OFFSET 3.314552 0.000000 0.000000
											CHANNELS 3 Xrotation Yrotation Zrotation
											End Site
											{
												OFFSET -1.032898 3.075485 0.678797
											}
										}
									}
								}
								JOINT LeftHandMiddle1
								{
									OFFSET 8.124603 0.000000 0.000000
									CHANNELS 3 Xrotation Yrotation Zrotation
									JOINT LeftHandMiddle2
									{
										OFFSET 4.166275 0.000000 0.000000
										CHANNELS 3 Xrotation Yrotation Zrotation
										JOINT LeftHandMiddle3
										{
											OFFSET 3.018135 0.000000 0.000000
											CHANNELS 3 Xrotation Yrotation Zrotation
											End Site
											{
												OFFSET -1.032700 2.767982 0.617226
											}
										}
									}
								}
								JOINT LeftHandRing1
								{
									OFFSET 8.571686 -0.031357 -2.884047
									CHANNELS 3 Xrotation Yrotation Zrotation
									JOINT LeftHandRing2
									{
										OFFSET 3.671181 0.000000 0.000000
										CHANNELS 3 Xrotation Yrotation Zrotation
										JOINT LeftHandRing3
										{
											OFFSET 2.728851 0.000000 0.000000
											CHANNELS 3 Xrotation Yrotation Zrotation
											End Site
											{
												OFFSET -0.815796 2.539223 0.577389
											}
										}
									}
								}
								JOINT LeftHandPinky1
								{
									OFFSET 7.854515 -0.675232 -5.213020
									CHANNELS 3 Xrotation Yrotation Zrotation
									JOINT LeftHandPinky2
									{
										OFFSET 3.068596 0.000000 0.000000
										CHANNELS 3 Xrotation Yrotation Zrotation
										JOINT LeftHandPinky3
										{
											OFFSET 2.396042 0.000000 0.000000
											CHANNELS 3 Xrotation Yrotation Zrotation
											End Site
											{
												OFFSET -0.524597 2.267998 0.567429
											}
										}
									}
								}
							}
							JOINT LeftSleeve
							{
								OFFSET 19.684509 -0.200119 0.476146
								CHANNELS 3 Xrotation Yrotation Zrotation
								End Site
								{
									OFFSET -0.031017 25.731133 -0.002868
								}
							}
						}
					}
				}
				JOINT RightShoulder
				{
					OFFSET -4.395900 7.341202 -1.870200
					CHANNELS 3 Xrotation Yrotation Zrotation
					JOINT RightArm
					{
						OFFSET -8.071453 0.936867 -2.181100
						CHANNELS 3 Xrotation Yrotation Zrotation
						JOINT RightForeArm
						{
							OFFSET -31.272011 0.000000 0.000000
							CHANNELS 3 Xrotation Yrotation Zrotation
							JOINT RightHand
							{
								OFFSET -31.771019 0.000000 0.000000
								CHANNELS 3 Xrotation Yrotation Zrotation
								JOINT RightHandThumb1
								{
									OFFSET -2.886520 -2.557808 4.416626
									CHANNELS 3 Xrotation Yrotation Zrotation
									JOINT RightHandThumb2
									{
										OFFSET -2.371056 -1.368927 1.368928
										CHANNELS 3 Xrotation Yrotation Zrotation
										JOINT RightHandThumb3
										{
											OFFSET -2.243362 -1.295204 1.295206
											CHANNELS 3 Xrotation Yrotation Zrotation
											End Site
											{
												OFFSET 0.332642 2.876938 0.020047
											}
										}
									}
								}
								JOINT RightHandIndex1
								{
									OFFSET -8.568993 -0.641953 3.120017
									CHANNELS 3 Xrotation Yrotation Zrotation
									JOINT RightHandIndex2
									{
										OFFSET -3.348518 0.000000 0.000000
										CHANNELS 3 Xrotation Yrotation Zrotation
										JOINT RightHandIndex3
										{
											OFFSET -3.314552 0.000000 0.000000
											CHANNELS 3 Xrotation Yrotation Zrotation
											End Site
											{
												OFFSET 1.032898 3.075478 0.678804
											}
										}
									}
								}
								JOINT RightHandMiddle1
								{
									OFFSET -8.124588 0.000000 0.000000
									CHANNELS 3 Xrotation Yrotation Zrotation
									JOINT RightHandMiddle2
									{
										OFFSET -4.166275 0.000000 0.000000
										CHANNELS 3 Xrotation Yrotation Zrotation
										JOINT RightHandMiddle3
										{
											OFFSET -3.018097 0.000000 0.000000
											CHANNELS 3 Xrotation Yrotation Zrotation
											End Site
											{
												OFFSET 1.032700 2.767937 0.617197
											}
										}
									}
								}
								JOINT RightHandRing1
								{
									OFFSET -8.571747 -0.031349 -2.884061
									CHANNELS 3 Xrotation Yrotation Zrotation
									JOINT RightHandRing2
									{
										OFFSET -3.671204 0.000000 0.000000
										CHANNELS 3 Xrotation Yrotation Zrotation
										JOINT RightHandRing3
										{
											OFFSET -2.728874 0.000000 0.000000
											CHANNELS 3 Xrotation Yrotation Zrotation
											End Site
											{
												OFFSET 0.815804 2.539261 0.577413
											}
										}
									}
								}
								JOINT RightHandPinky1
								{
									OFFSET -7.854561 -0.675247 -5.212970
									CHANNELS 3 Xrotation Yrotation Zrotation
									JOINT RightHandPinky2
									{
										OFFSET -3.068550 0.000000 0.000000
										CHANNELS 3 Xrotation Yrotation Zrotation
										JOINT RightHandPinky3
										{
											OFFSET -2.395981 0.000000 0.000000
											CHANNELS 3 Xrotation Yrotation Zrotation
											End Site
											{
												OFFSET 0.524605 2.267952 0.567413
											}
										}
									}
								}
							}
							JOINT RightSleeve
							{
								OFFSET -19.684753 -0.200165 0.476065
								CHANNELS 3 Xrotation Yrotation Zrotation
								End Site
								{
									OFFSET 0.031342 25.731255 -0.002917
								}
							}
						}
					}
				}
				JOINT Hood
				{
					OFFSET 0.369700 14.447800 -5.317800
					CHANNELS 3 Xrotation Yrotation Zrotation
					JOINT Hood1
					{
						OFFSET 0.001700 -5.553802 -5.895100
						CHANNELS 3 Xrotation Yrotation Zrotation
						JOINT Hood2
						{
							OFFSET -0.000200 -8.380501 0.763600
							CHANNELS 3 Xrotation Yrotation Zrotation
							End Site
							{
								OFFSET 0.000000 8.415215 0.000000
							}
						}
					}
				}
				JOINT Left_Breast
				{
					OFFSET 5.682500 3.120102 3.188800
					CHANNELS 3 Xrotation Yrotation Zrotation
					End Site
					{
						OFFSET 0.000000 10.528564 0.000000
					}
				}
				JOINT Right_Breast
				{
					OFFSET -4.947600 3.120102 3.185900
					CHANNELS 3 Xrotation Yrotation Zrotation
					End Site
					{
						OFFSET 0.000000 10.528564 0.000000
					}
				}
				JOINT Whistle
				{
					OFFSET 0.368200 11.471298 0.095400
					CHANNELS 3 Xrotation Yrotation Zrotation
					JOINT Whistle1
					{
						OFFSET -0.002000 -6.349899 7.479800
						CHANNELS 3 Xrotation Yrotation Zrotation
						JOINT Whistle2
						{
							OFFSET -0.001300 -8.217598 4.717600
							CHANNELS 3 Xrotation Yrotation Zrotation
							End Site
							{
								OFFSET 0.000000 9.475479 0.000000
							}
						}
					}
				}
			}
		}
		JOINT Belly
		{
			OFFSET 0.212400 1.593002 3.163700
			CHANNELS 3 Xrotation Yrotation Zrotation
			End Site
			{
				OFFSET 0.000000 7.496635 0.000000
			}
		}
	}
	JOINT FitGrandmaFacialAnim_Joint
	{
		OFFSET 1.150000 -86.211197 -1.220100
		CHANNELS 3 Xrotation Yrotation Zrotation
		End Site
		{
			OFFSET 0.000000 31.666618 0.000000
		}
	}
}
MOTION
Frames: 4
Frame Time: 0.016667
-73.920830 83.475601 -1.678874 -2.305148 49.357300 2.702339 -0.000000 0.000002 0.000000 -16.779270 -3.509657 12.595113 9.583782 -10.651785 -8.763040 4.377085 -15.097115 -7.491978 -0.000000 0.000000 0.000000 -0.000000 -0.000001 -0.000001 -0.000000 0.000000 -0.000001 10.248678 -2.188524 -3.893600 19.325412 -1.802703 -2.036463 -26.498011 -15.174076 3.346230 0.000000 -0.000001 -0.000000 -0.000000 -0.000000 0.000001 0.000001 0.000001 -0.000000 3.279793 16.304514 0.884870 0.082432 2.219685 -1.399597 0.129990 2.211474 -1.410072 3.590909 -11.727634 4.388414 23.908386 -56.358900 38.319909 0.000001 -0.000000 -0.000000 0.000001 -0.000000 -0.000000 0.000001 -0.000000 -0.000000 0.000001 -0.000000 -0.000000 0.000001 -0.000000 -0.000000 0.000001 -0.000000 -0.000000 0.000001 -0.000000 -0.000000 0.000001 -0.000000 -0.000000 0.000001 -0.000000 -0.000000 0.000001 -0.000000 -0.000000 0.000001 -0.000000 -0.000000 0.000001 -0.000000 -0.000000 0.000001 -0.000000 -0.000000 0.000001 -0.000000 -0.000000 0.000001 -0.000000 -0.000000 0.000001 -0.000000 -0.000000 0.000001 -0.000000 -0.000000 0.000001 -0.000000 -0.000000 0.000001 -0.000000 -0.000000 -0.157677 2.519038 5.278270 53.868640 -31.204590 -64.509545 -0.000039 -56.753046 -0.000036 37.536988 -3.180396 -17.017835 -1.540033 3.690184 6.142357 3.939053 7.948708 0.746798 0.000000 -0.000000 0.000000 0.636928 2.897093 -24.793452 0.188367 1.602669 -13.405747 0.000001 -0.000002 0.000002 0.714331 3.058882 -26.283248 0.176806 1.553385 -12.985961 0.000002 -0.000001 0.000003 0.880090 3.373316 -29.237161 0.132821 1.348615 -11.249277 0.000001 0.000000 -0.000000 3.287964 7.149377 -32.417256 0.063669 -3.054652 -8.824183 0.000001 -0.000001 -0.000004 0.000004 0.000000 0.000000 1.721647 19.252290 1.612583 47.026675 49.328261 23.831102 0.000007 66.115364 -0.000009 23.013481 -6.117799 -3.082705 -13.070948 -12.221496 -13.977600 -5.547039 -23.254349 -2.086132 -0.000002 0.000002 -0.000001 0.053537 -0.862951 7.099719 0.008240 -0.339149 2.784057 -0.000001 0.000001 -0.000000 0.128780 -1.334716 11.022036 0.024705 -0.586849 4.821344 0.000000 -0.000001 0.000008 0.212754 -1.710199 14.181751 0.014926 -0.456198 3.746224 -0.000003 -0.000001 0.000001 0.221415 -1.744091 14.469085 0.000002 0.006113 -0.000049 -0.000002 0.000002 -0.000000 -0.000002 -0.000002 0.000001 -0.000000 -0.000002 0.000000 -0.000000 -0.000002 0.000000 -0.000000 -0.000002 0.000000 -0.000000 -0.000002 0.000000 -0.000000 -0.000002 0.000000 -0.000000 -0.000002 0.000000 -0.000000 -0.000002 -0.000000 -0.000000 -0.000002 -0.000000 -0.000000 0.000000 0.000000 -0.000000 0.000002 0.000000 
-74.017220 83.432510 -1.597553 -2.075865 49.589216 2.513464 0.000000 -0.000001 0.000000 -17.115595 -3.013898 12.807619 9.348610 -10.666496 -8.914705 4.654041 -16.256704 -7.711839 0.000000 0.000002 0.000000 -0.000001 0.000002 0.000001 -0.000000 0.000003 -0.000000 9.914611 -2.946576 -3.490140 19.618156 -2.033192 -2.613689 -26.511692 -14.862645 3.801993 0.000000 0.000002 -0.000000 0.000001 0.000001 0.000001 -0.000001 0.000001 -0.000000 3.287671 15.587320 0.870170 0.345865 2.120951 -1.353277 0.389844 2.112553 -1.356210 2.338591 -11.604216 5.588481 19.142201 -55.026876 37.293629 0.000003 -0.000000 -0.000001 0.000003 -0.000000 -0.000001 0.000003 -0.000000 -0.000001 0.000003 -0.000000 -0.000001 0.000003 -0.000000 -0.000001 0.000003 -0.000000 -0.000001 0.000003 -0.000000 -0.000001 0.000003 -0.000000 -0.000001 0.000003 -0.000000 -0.000001 0.000003 -0.000000 -0.000001 0.000003 -0.000000 -0.000001 0.000003 -0.000000 -0.000001 0.000003 -0.000000 -0.000001 0.000003 -0.000000 -0.000001 0.000003 -0.000000 -0.000001 0.000003 -0.000000 -0.000001 0.000003 -0.000000 -0.000001 0.000003 -0.000000 -0.000001 0.000003 -0.000000 -0.000001 -0.181387 2.618162 5.496812 52.544276 -31.701859 -64.991005 -0.000004 -55.579414 0.000018 37.355479 -4.849488 -16.761214 -1.540034 3.690186 6.142372 3.939053 7.948706 0.746818 -0.000001 -0.000000 0.000000 0.799798 3.225918 -27.842363 0.269012 1.909466 -16.036996 0.000005 -0.000001 0.000002 0.895621 3.400864 -29.500161 0.256769 1.866372 -15.665380 0.000002 0.000001 -0.000002 1.101856 3.741340 -32.810163 0.201673 1.657475 -13.873412 0.000001 0.000001 -0.000002 3.797516 7.382508 -36.444547 0.114870 -2.765846 -11.252099 -0.000003 -0.000000 -0.000002 0.000000 -0.000000 0.000000 1.696708 19.356601 1.670680 47.789290 49.586183 21.780756 -0.000020 65.906510 0.000008 21.965960 -6.068504 -0.509769 -13.074535 -12.222407 -13.977238 -5.550152 -23.258592 -2.086688 0.000000 0.000001 0.000001 0.053483 -0.862463 7.095732 0.008187 -0.338042 2.774960 -0.000001 0.000002 -0.000002 0.131317 -1.347649 11.130258 0.025178 -0.592392 4.867021 0.000001 0.000000 0.000001 0.215742 -1.721976 14.281520 0.015246 -0.460978 3.785523 0.000000 0.000000 0.000003 0.221206 -1.743281 14.462196 0.000011 0.007355 0.000044 0.000001 0.000000 -0.000001 -0.000000 0.000001 -0.000001 -0.000000 -0.000000 0.000000 -0.000000 -0.000000 0.000000 -0.000000 -0.000000 0.000000 -0.000000 -0.000000 0.000000 -0.000000 -0.000000 0.000000 -0.000000 -0.000000 0.000000 -0.000000 -0.000000 -0.000000 -0.000000 -0.000000 -0.000000 0.000000 -0.000001 -0.000000 0.000000 -0.000001 0.000000 
-74.110374 83.410324 -1.496555 -1.770039 49.582833 2.225865 -0.000000 -0.000002 -0.000000 -17.308242 -2.505197 13.107618 9.042601 -10.626267 -9.091529 4.876252 -17.028561 -7.701014 0.000000 -0.000000 -0.000000 0.000000 0.000002 0.000001 0.000001 0.000001 -0.000001 9.532653 -3.866959 -3.175993 19.780991 -2.242698 -3.134436 -26.416880 -14.123491 4.319988 0.000000 -0.000003 -0.000000 -0.000001 -0.000001 0.000001 0.000000 -0.000001 -0.000000 3.201884 14.891267 0.873482 0.603874 2.024337 -1.272713 0.643044 2.016131 -1.268109 1.560462 -11.327298 6.579304 13.724740 -53.642434 35.161742 -0.000000 0.000000 -0.000001 -0.000000 0.000000 -0.000001 -0.000000 0.000000 -0.000001 -0.000000 0.000000 -0.000001 -0.000000 0.000000 -0.000001 -0.000000 0.000000 -0.000001 -0.000000 0.000000 -0.000001 -0.000000 0.000000 -0.000001 -0.000000 0.000000 -0.000001 -0.000000 0.000000 -0.000001 -0.000000 0.000000 -0.000001 -0.000000 0.000000 -0.000001 -0.000000 0.000000 -0.000001 -0.000000 0.000000 -0.000001 -0.000000 0.000000 -0.000001 -0.000000 0.000000 -0.000001 -0.000000 0.000000 -0.000001 -0.000000 0.000000 -0.000001 -0.000000 0.000000 -0.000001 -0.238678 2.908287 5.637166 51.502519 -32.027389 -65.030805 0.000001 -55.235139 -0.000001 35.800337 -6.281474 -16.467426 -1.540039 3.690186 6.142350 3.939052 7.948704 0.746823 -0.000001 -0.000000 0.000001 0.938832 3.475989 -30.220636 0.354613 2.185202 -18.432543 0.000001 0.000000 0.000002 1.059623 3.675130 -32.157179 0.346559 2.160953 -18.220508 0.000002 -0.000000 -0.000001 1.314510 4.051496 -35.938809 0.286480 1.969192 -16.553115 0.000001 -0.000001 -0.000002 4.274820 7.563349 -40.113250 0.184670 -2.453326 -13.902515 -0.000001 -0.000000 -0.000002 -0.000001 0.000000 -0.000000 1.685861 19.340599 1.634087 49.097189 49.965972 19.165784 -0.000043 65.586086 0.000033 20.635658 -6.456629 2.085158 -13.074111 -12.222297 -13.977303 -5.549752 -23.258071 -2.086623 0.000002 0.000001 0.000000 0.053473 -0.862491 7.095901 0.008193 -0.338129 2.775731 -0.000001 -0.000000 -0.000000 0.134167 -1.362031 11.250663 0.025837 -0.600123 4.930651 -0.000000 -0.000001 0.000004 0.219189 -1.735461 14.395834 0.015699 -0.467907 3.842466 0.000001 -0.000001 0.000001 0.221224 -1.743356 14.462794 0.000006 0.007228 0.000032 -0.000002 -0.000001 0.000002 -0.000000 0.000001 0.000001 -0.000000 -0.000000 0.000000 -0.000000 -0.000000 0.000000 -0.000000 -0.000000 0.000000 -0.000000 -0.000000 0.000000 -0.000000 -0.000000 0.000000 -0.000000 -0.000000 0.000000 0.000000 0.000003 -0.000000 0.000000 0.000003 -0.000000 0.000000 -0.000001 -0.000000 -0.000000 -0.000002 -0.000000 
-74.202591 83.419464 -1.385026 -1.399397 49.287581 1.871404 0.000000 0.000001 -0.000000 -17.169499 -2.205644 13.414744 8.470604 -10.519860 -9.197306 5.066667 -16.940285 -7.421435 -0.000000 0.000000 -0.000000 -0.000000 -0.000005 0.000000 0.000000 -0.000002 -0.000001 9.147695 -4.762010 -3.041907 19.744605 -2.311018 -3.425656 -26.305541 -13.078782 4.613374 -0.000000 -0.000000 0.000000 -0.000000 -0.000001 0.000001 -0.000001 0.000003 -0.000000 3.015180 14.342164 0.945365 0.813518 1.947510 -1.227372 0.849311 1.939506 -1.216407 1.429029 -10.920777 7.290669 8.160028 -52.317156 32.088618 0.000001 0.000000 0.000002 0.000001 0.000000 0.000002 0.000001 0.000000 0.000002 0.000001 0.000000 0.000002 0.000001 0.000000 0.000002 0.000001 0.000000 0.000002 0.000001 0.000000 0.000002 0.000001 0.000000 0.000002 0.000001 0.000000 0.000002 0.000001 0.000000 0.000002 0.000001 0.000000 0.000002 0.000001 0.000000 0.000002 0.000001 0.000000 0.000002 0.000001 0.000000 0.000002 0.000001 0.000000 0.000002 0.000001 0.000000 0.000002 0.000001 0.000000 0.000002 0.000001 0.000000 0.000002 0.000001 0.000000 0.000002 -0.309229 3.276241 5.712592 50.831494 -32.106175 -64.654318 -0.000016 -55.656766 0.000001 33.185215 -7.336345 -16.679486 -1.540038 3.690186 6.142340 3.939052 7.948709 0.746794 0.000000 -0.000000 0.000001 1.046294 3.653894 -31.948756 0.435477 2.414130 -20.447522 0.000003 0.000000 0.000004 1.194623 3.881141 -34.205809 0.436644 2.417285 -20.475486 0.000004 0.000001 -0.000000 1.499734 4.294771 -38.483738 0.379268 2.257816 -19.068761 0.000000 0.000000 -0.000002 4.684670 7.691690 -43.200298 0.267992 -2.147224 -16.528076 -0.000000 0.000001 -0.000003 0.000001 -0.000001 -0.000001 1.702607 19.386290 1.530570 50.828970 50.263027 16.309247 -0.000050 65.148694 0.000047 19.266715 -7.120157 4.374765 -13.071512 -12.221642 -13.977556 -5.547518 -23.255018 -2.086211 0.000001 0.000001 0.000000 0.053512 -0.862790 7.098412 0.008225 -0.338886 2.781877 0.000002 -0.000000 -0.000000 0.137213 -1.377278 11.378268 0.026663 -0.609662 5.009233 -0.000001 0.000001 0.000003 0.222974 -1.750146 14.520373 0.016284 -0.476565 3.913669 0.000001 -0.000001 0.000001 0.221363 -1.743897 14.467435 0.000007 0.006345 0.000078 0.000002 -0.000002 -0.000001 -0.000002 0.000000 -0.000001 -0.000000 -0.000001 0.000000 -0.000000 -0.000001 0.000000 -0.000000 -0.000001 0.000000 -0.000000 -0.000001 0.000000 -0.000000 -0.000001 0.000000 -0.000000 -0.000001 0.000000 0.000000 -0.000001 0.000000 0.000000 -0.000001 0.000000 -0.000000 -0.000002 0.000000 0.000000 0.000001 -0.000000 
